Coordinates
version=1
nRows=26
nColumns=24
inDegrees=yes

Units are S.I. units (second, meters, Newtons, ...)
Angles are in degrees.

endheader
time	pelvis_tilt	pelvis_list	pelvis_rotation	pelvis_tx	pelvis_ty	pelvis_tz	hip_flexion_r	hip_adduction_r	hip_rotation_r	knee_angle_r	ankle_angle_r	subtalar_angle_r	mtp_angle_r	hip_flexion_l	hip_adduction_l	hip_rotation_l	knee_angle_l	ankle_angle_l	subtalar_angle_l	mtp_angle_l	lumbar_extension	lumbar_bending	lumbar_rotation
      1.86000000	     63.99001890	      1.97574975	     -2.91246382	      0.54823628	      1.00085155	     -0.29508752	      7.32778244	    -10.39315582	     15.63185428	      4.44568833	    -22.46570938	      5.79861457	    -19.25305297	     -7.20785537	     -7.15010570	      1.62633995	    -53.18672160	     -2.63192976	      9.80128767	    -30.51278716	      0.00000000	      0.00000000	      0.00000000
      1.87000000	     63.99173977	      1.97791025	     -2.91522409	      0.54823229	      1.00084275	     -0.29507649	      7.34242449	    -10.39162852	     15.66214530	      4.44473280	    -22.42279074	      5.77691807	    -19.22782505	     -7.20868885	     -7.14748517	      1.62338746	    -53.18607115	     -2.63325194	      9.79953076	    -30.50640771	      0.00000000	      0.00000000	      0.00000000
      1.88000000	     63.99489705	      1.98128611	     -2.91749798	      0.54822650	      1.00083497	     -0.29505446	      7.35812364	    -10.39390898	     15.70584790	      4.44441529	    -22.37575108	      5.78404465	    -19.20340570	     -7.20900773	     -7.14435438	      1.61926216	    -53.18789645	     -2.63379236	      9.79871100	    -30.49977022	      0.00000000	      0.00000000	      0.00000000
      1.89000000	     64.00050038	      1.98526540	     -2.91877436	      0.54822121	      1.00082261	     -0.29503634	      7.37128436	    -10.40143360	     15.75491954	      4.44783398	    -22.32394659	      5.82617341	    -19.18219839	     -7.21064551	     -7.14048478	      1.61486517	    -53.19171370	     -2.63354712	      9.79901168	    -30.49290688	      0.00000000	      0.00000000	      0.00000000
      1.90000000	     64.00941417	      1.98909488	     -2.91817715	      0.54821837	      1.00080923	     -0.29503717	      7.37774496	    -10.41379812	     15.79568424	      4.45723180	    -22.26906055	      5.90352996	    -19.16808736	     -7.21540857	     -7.13612371	      1.61116501	    -53.19633118	     -2.63281859	      9.80048531	    -30.48606371	      0.00000000	      0.00000000	      0.00000000
      1.91000000	     64.02206105	      1.99156376	     -2.91464082	      0.54821392	      1.00080594	     -0.29505231	      7.37363399	    -10.42879504	     15.80983278	      4.47236267	    -22.21499746	      6.00819078	    -19.16620860	     -7.22466361	     -7.13238324	      1.60885368	    -53.20000461	     -2.63214699	      9.80306817	    -30.47972419	      0.00000000	      0.00000000	      0.00000000
      1.92000000	     64.03761171	      1.99141413	     -2.90746435	      0.54820699	      1.00081902	     -0.29507021	      7.35568528	    -10.44243395	     15.77701400	      4.48854926	    -22.16626062	      6.12290800	    -19.18240372	     -7.23906498	     -7.13124502	      1.60802376	    -53.20068308	     -2.63213099	      9.80662580	    -30.47456522	      0.00000000	      0.00000000	      0.00000000
      1.93000000	     64.05391046	      1.98783583	     -2.89700581	      0.54820851	      1.00084934	     -0.29508987	      7.32181388	    -10.44928336	     15.67884797	      4.49539234	    -22.12445468	      6.22169783	    -19.22225035	     -7.25841828	     -7.13490703	      1.60796879	    -53.19631707	     -2.63318627	      9.81099482	    -30.47135095	      0.00000000	      0.00000000	      0.00000000
      1.94000000	     64.06845022	      1.98063276	     -2.88519083	      0.54823033	      1.00089448	     -0.29510654	      7.27196575	    -10.44337316	     15.50395388	      4.47689515	    -22.08299816	      6.27260716	    -19.28963393	     -7.28171724	     -7.14455042	      1.60722121	    -53.18530570	     -2.63533017	      9.81601540	    -30.47080004	      0.00000000	      0.00000000	      0.00000000
      1.95000000	     64.07953603	      1.97059942	     -2.87551144	      0.54827173	      1.00094496	     -0.29510319	      7.20817598	    -10.41942481	     15.25346934	      4.41313834	    -22.02109606	      6.24275139	    -19.38503335	     -7.30731188	     -7.15925815	      1.60396056	    -53.16715613	     -2.63806717	      9.82155849	    -30.47347300	      0.00000000	      0.00000000	      0.00000000
      1.96000000	     64.08715312	      1.95972533	     -2.87201438	      0.54831474	      1.00099255	     -0.29506751	      7.13352030	    -10.37475608	     14.94605180	      4.28331821	    -21.89916064	      6.10529952	    -19.50398626	     -7.33314171	     -7.17595513	      1.59677984	    -53.14325062	     -2.64042077	      9.82754049	    -30.47970898	      0.00000000	      0.00000000	      0.00000000
      1.97000000	     64.09256095	      1.95088664	     -2.87721237	      0.54833423	      1.00103255	     -0.29500399	      7.04947633	    -10.31157779	     14.62067428	      4.06914402	    -21.65840330	      5.84733407	    -19.63639107	     -7.35691866	     -7.19064973	      1.58552181	    -53.11734332	     -2.64112891	      9.83393625	    -30.48961508	      0.00000000	      0.00000000	      0.00000000
      1.98000000	     64.09653158	      1.94726456	     -2.88983559	      0.54832706	      1.00104815	     -0.29492733	      6.95228556	    -10.23835224	     14.33496558	      3.75788109	    -21.22660461	      5.47646933	    -19.76718830	     -7.37605579	     -7.20045860	      1.57171964	    -53.09524213	     -2.63897859	      9.84082861	    -30.50308856	      0.00000000	      0.00000000	      0.00000000
      1.99000000	     64.09828430	      1.95134297	     -2.90389281	      0.54832583	      1.00102544	     -0.29484584	      6.83112894	    -10.16898231	     14.15714524	      3.34537558	    -20.53050421	      5.02357585	    -19.87862979	     -7.38720571	     -7.20519311	      1.55821488	    -53.08328318	     -2.63320606	      9.84852793	    -30.51984108	      0.00000000	      0.00000000	      0.00000000
      2.00000000	     64.09508304	      1.96441122	     -2.91052748	      0.54837537	      1.00097781	     -0.29475894	      6.66863690	    -10.11876806	     14.15170549	      2.83797897	    -19.51382929	      4.53997015	    -19.95404536	     -7.38571295	     -7.20736661	      1.54791697	    -53.08586531	     -2.62383842	      9.85772600	    -30.53939860	      0.00000000	      0.00000000	      0.00000000
      2.01000000	     64.08165154	      1.98675824	     -2.90259489	      0.54850026	      1.00091954	     -0.29466185	      6.44310524	    -10.09888028	     14.36240583	      2.25145613	    -18.15798528	      4.08926639	    -19.98261329	     -7.36590054	     -7.21070940	      1.54228945	    -53.10322306	     -2.61184997	      9.86957311	    -30.56106829	      0.00000000	      0.00000000	      0.00000000
      2.02000000	     64.05129212	      2.01703538	     -2.87894929	      0.54868827	      1.00083734	     -0.29454257	      6.13387377	    -10.11359610	     14.79904581	      1.60700638	    -16.49962446	      3.73557463	    -19.96404792	     -7.32293072	     -7.21850144	      1.54043709	    -53.13085639	     -2.59905389	      9.88556060	    -30.58388293	      0.00000000	      0.00000000	      0.00000000
      2.03000000	     63.99930763	      2.05169854	     -2.84472048	      0.54890238	      1.00071852	     -0.29439894	      5.72878559	    -10.16113878	     15.43418578	      0.92584334	    -14.63793785	      3.53096710	    -19.91176829	     -7.25555128	     -7.23287951	      1.53930560	    -53.16113098	     -2.58770020	      9.90715080	    -30.60654116	      0.00000000	      0.00000000	      0.00000000
      2.04000000	     63.92560104	      2.08614751	     -2.80721794	      0.54911206	      1.00058568	     -0.29424672	      5.22838642	    -10.23602109	     16.21117860	      0.22359567	    -12.72596344	      3.50558110	    -19.85325365	     -7.16768278	     -7.25502440	      1.53482278	    -53.18625724	     -2.57984476	      9.93521331	    -30.62736865	      0.00000000	      0.00000000	      0.00000000
      2.05000000	     63.83365279	      2.11756756	     -2.77090417	      0.54931202	      1.00048205	     -0.29409382	      4.64310320	    -10.33052806	     17.05883229	     -0.49388568	    -10.94490278	      3.66309137	    -19.82704393	     -7.06725555	     -7.28543097	      1.52339575	    -53.20116322	     -2.57671289	      9.96946571	    -30.64434025	      0.00000000	      0.00000000	      0.00000000
      2.06000000	     63.72740298	      2.14752841	     -2.73483228	      0.54953026	      1.00043246	     -0.29392755	      3.98612860	    -10.43470918	     17.90575925	     -1.23151294	     -9.46704196	      3.98297884	    -19.87705670	     -6.96280519	     -7.32386589	      1.50318047	    -53.20497092	     -2.57837616	     10.00818915	    -30.65521232	      0.00000000	      0.00000000	      0.00000000
      2.07000000	     63.61007546	      2.18043752	     -2.69327303	      0.54981911	      1.00043930	     -0.29373841	      3.26871113	    -10.53767538	     18.68987137	     -2.00276014	     -8.41761980	      4.42895370	    -20.04584940	     -6.85997164	     -7.36940977	      1.47475248	    -53.20053477	     -2.58396320	     10.04840276	    -30.65780354	      0.00000000	      0.00000000	      0.00000000
      2.08000000	     63.48544072	      2.21884187	     -2.63863328	      0.55021398	      1.00050352	     -0.29355193	      2.50061988	    -10.63063111	     19.36234294	     -2.82709653	     -7.84674052	      4.96079109	    -20.36873150	     -6.75975400	     -7.42120331	      1.44104679	    -53.19240043	     -2.59237217	     10.08647555	    -30.65043501	      0.00000000	      0.00000000	      0.00000000
      2.09000000	     63.35790182	      2.26142809	     -2.56531547	      0.55069088	      1.00060405	     -0.29339979	      1.69300747	    -10.70784834	     19.88795849	     -3.72986637	     -7.71926324	      5.54554236	    -20.87021057	     -6.65903921	     -7.47955501	      1.40652358	    -53.18428722	     -2.60322129	     10.11900293	    -30.63250819	      0.00000000	      0.00000000	      0.00000000
      2.10000000	     63.22978361	      2.30505663	     -2.47272447	      0.55116472	      1.00067816	     -0.29325990	      0.86134689	    -10.76406713	     20.24448344	     -4.74404986	     -7.92515478	      6.16419342	    -21.56337627	     -6.55274943	     -7.54616978	      1.37565684	    -53.17738835	     -2.61767986	     10.14372344	    -30.60515825	      0.00000000	      0.00000000	      0.00000000
      2.11000000	     63.09788145	      2.34676379	     -2.36612081	      0.55156919	      1.00068873	     -0.29308800	      0.02782831	    -10.79174014	     20.42252663	     -5.91100246	     -8.30746003	      6.81176425	    -22.45192163	     -6.43603402	     -7.62308212	      1.35135594	    -53.17020006	     -2.63883634	     10.16020660	    -30.57186010	      0.00000000	      0.00000000	      0.00000000
